<?xml version="1.0" encoding="UTF-8" standalone="no"?>
<!-- Created with Inkscape (http://www.inkscape.org/) -->

<svg
   xmlns:dc="http://purl.org/dc/elements/1.1/"
   xmlns:cc="http://creativecommons.org/ns#"
   xmlns:rdf="http://www.w3.org/1999/02/22-rdf-syntax-ns#"
   xmlns:svg="http://www.w3.org/2000/svg"
   xmlns="http://www.w3.org/2000/svg"
   xmlns:sodipodi="http://sodipodi.sourceforge.net/DTD/sodipodi-0.dtd"
   xmlns:inkscape="http://www.inkscape.org/namespaces/inkscape"
   id="svg4297"
   version="1.1"
   inkscape:version="0.91 r13725"
   xml:space="preserve"
   width="251.25"
   height="106.2625"
   viewBox="0 0 251.25 106.2625"
   sodipodi:docname="hm-lr-logo.svg"><metadata
     id="metadata4303"><rdf:RDF><cc:Work
         rdf:about=""><dc:format>image/svg+xml</dc:format><dc:type
           rdf:resource="http://purl.org/dc/dcmitype/StillImage" /><dc:title></dc:title></cc:Work></rdf:RDF></metadata><defs
     id="defs4301" /><sodipodi:namedview
     pagecolor="#ffffff"
     bordercolor="#666666"
     borderopacity="1"
     objecttolerance="10"
     gridtolerance="10"
     guidetolerance="10"
     inkscape:pageopacity="0"
     inkscape:pageshadow="2"
     inkscape:window-width="1920"
     inkscape:window-height="1136"
     id="namedview4299"
     showgrid="false"
     inkscape:zoom="5.5721393"
     inkscape:cx="125.625"
     inkscape:cy="53.131248"
     inkscape:window-x="0"
     inkscape:window-y="27"
     inkscape:window-maximized="1"
     inkscape:current-layer="g4305" /><g
     id="g4305"
     inkscape:groupmode="layer"
     inkscape:label="ink_ext_XXXXXX"
     transform="matrix(1.25,0,0,-1.25,0,106.2625)"><g
       id="g4307"
       transform="scale(0.1,0.1)"><path
         d="m 2008.71,850.137 0,-641.953 -118.48,-204.62931 -1888.72219,0 0,846.58231 2007.20219,0"
         style="fill:#ffffff;fill-opacity:1;fill-rule:nonzero;stroke:none"
         id="path4309"
         inkscape:connector-curvature="0" /><path
         d="m 1407.7,617.945 -27.29,47.258 27.29,47.238 54.59,0 27.25,-47.238 -27.28,-47.258 -54.56,0"
         style="fill:#a7a5a6;fill-opacity:1;fill-rule:nonzero;stroke:none"
         id="path4311"
         inkscape:connector-curvature="0" /><path
         d="m 1325.85,476.168 -27.29,47.262 27.29,47.258 54.56,0 27.29,-47.258 -27.29,-47.262 -54.56,0"
         style="fill:#a7a5a6;fill-opacity:1;fill-rule:nonzero;stroke:none"
         id="path4313"
         inkscape:connector-curvature="0" /><path
         d="m 1735.12,617.945 -27.29,47.285 27.29,47.211 54.59,0 27.25,-47.211 -27.27,-47.285 -54.57,0"
         style="fill:#a7a5a6;fill-opacity:1;fill-rule:nonzero;stroke:none"
         id="path4315"
         inkscape:connector-curvature="0" /><path
         d="m 1816.99,476.188 -27.28,47.242 27.28,47.258 54.55,0 27.27,-47.258 -27.29,-47.242 -54.53,0"
         style="fill:#a7a5a6;fill-opacity:1;fill-rule:nonzero;stroke:none"
         id="path4317"
         inkscape:connector-curvature="0" /><path
         d="m 1489.56,192.598 -27.27,47.265 27.27,47.266 54.56,0 27.29,-47.266 -27.29,-47.265 -54.56,0"
         style="fill:#a7a5a6;fill-opacity:1;fill-rule:nonzero;stroke:none"
         id="path4319"
         inkscape:connector-curvature="0" /><path
         d="m 1653.27,192.598 -27.27,47.265 27.27,47.266 54.56,0 27.29,-47.266 -27.29,-47.265 -54.56,0"
         style="fill:#a7a5a6;fill-opacity:1;fill-rule:nonzero;stroke:none"
         id="path4321"
         inkscape:connector-curvature="0" /><path
         d="m 1571.41,523.43 -27.29,47.258 27.29,47.257 54.59,0 27.27,-47.257 -27.29,-47.258 -54.57,0"
         style="fill:#a7a5a6;fill-opacity:1;fill-rule:nonzero;stroke:none"
         id="path4323"
         inkscape:connector-curvature="0" /><path
         d="m 1489.56,381.641 -27.27,47.285 27.27,47.262 54.56,0 27.29,-47.262 -27.29,-47.285 -54.56,0"
         style="fill:#a7a5a6;fill-opacity:1;fill-rule:nonzero;stroke:none"
         id="path4325"
         inkscape:connector-curvature="0" /><path
         d="m 1653.27,381.641 -27.27,47.285 27.27,47.262 54.56,0 27.29,-47.262 -27.29,-47.285 -54.56,0"
         style="fill:#a7a5a6;fill-opacity:1;fill-rule:nonzero;stroke:none"
         id="path4327"
         inkscape:connector-curvature="0" /><path
         d="m 1407.7,523.43 -27.29,47.258 27.29,47.257 54.59,0 27.25,-47.257 -27.28,-47.258 -54.56,0"
         style="fill:#66c430;fill-opacity:1;fill-rule:nonzero;stroke:none"
         id="path4329"
         inkscape:connector-curvature="0" /><path
         d="m 1571.41,617.945 -27.29,47.258 27.29,47.238 54.59,0 27.26,-47.226 -9.98,-17.301 -17.3,-29.969 -54.57,0"
         style="fill:#66c430;fill-opacity:1;fill-rule:nonzero;stroke:none"
         id="path4331"
         inkscape:connector-curvature="0" /><path
         d="m 1407.7,334.375 -27.29,47.266 27.29,47.265 -0.01,0 0.01,0.02 54.59,0 27.25,-47.285 -27.28,-47.266 -54.56,0"
         style="fill:#66c430;fill-opacity:1;fill-rule:nonzero;stroke:none"
         id="path4333"
         inkscape:connector-curvature="0" /><path
         d="m 1735.12,523.43 -27.29,47.258 27.29,47.257 54.59,0 27.25,-47.257 -27.27,-47.258 -54.57,0"
         style="fill:#66c430;fill-opacity:1;fill-rule:nonzero;stroke:none"
         id="path4335"
         inkscape:connector-curvature="0" /><path
         d="m 1571.41,239.863 -27.29,47.266 27.29,47.246 54.59,0 27.27,-47.246 -27.29,-47.266 -54.57,0"
         style="fill:#66c430;fill-opacity:1;fill-rule:nonzero;stroke:none"
         id="path4337"
         inkscape:connector-curvature="0" /><path
         d="m 1735.12,334.375 -27.29,47.266 27.29,47.285 54.59,0 27.25,-47.285 -27.27,-47.266 -54.57,0"
         style="fill:#66c430;fill-opacity:1;fill-rule:nonzero;stroke:none"
         id="path4339"
         inkscape:connector-curvature="0" /><path
         d="m 1489.56,665.203 -27.27,47.238 27.27,47.239 54.56,0 27.29,-47.239 -27.29,-47.238 -54.56,0"
         style="fill:#a6d71c;fill-opacity:1;fill-rule:nonzero;stroke:none"
         id="path4341"
         inkscape:connector-curvature="0" /><path
         d="m 1653.27,665.23 -27.27,47.211 27.27,47.239 54.56,0 27.29,-47.239 -27.29,-47.211 -54.56,0"
         style="fill:#a6d71c;fill-opacity:1;fill-rule:nonzero;stroke:none"
         id="path4343"
         inkscape:connector-curvature="0" /><path
         d="m 1325.85,381.641 -27.29,47.265 27.29,47.262 54.56,0 27.28,-47.262 -27.28,-47.265 -54.56,0"
         style="fill:#a6d71c;fill-opacity:1;fill-rule:nonzero;stroke:none"
         id="path4345"
         inkscape:connector-curvature="0" /><path
         d="m 1407.7,239.863 -27.29,47.266 27.29,47.246 54.59,0 27.25,-47.246 -27.28,-47.266 -54.56,0"
         style="fill:#a6d71c;fill-opacity:1;fill-rule:nonzero;stroke:none"
         id="path4347"
         inkscape:connector-curvature="0" /><path
         d="m 1816.99,381.641 -27.28,47.285 27.28,47.262 54.55,0 27.27,-47.262 -27.29,-47.285 -54.53,0"
         style="fill:#a6d71c;fill-opacity:1;fill-rule:nonzero;stroke:none"
         id="path4349"
         inkscape:connector-curvature="0" /><path
         d="m 1735.12,239.863 -27.29,47.266 27.29,47.246 54.59,0 27.25,-47.246 -27.27,-47.266 -54.57,0"
         style="fill:#a6d71c;fill-opacity:1;fill-rule:nonzero;stroke:none"
         id="path4351"
         inkscape:connector-curvature="0" /><path
         d="m 1544.12,476.188 -54.56,0 -27.27,47.242 27.27,47.258 54.56,0 27.29,-47.258 -27.29,-47.242 0,0"
         style="fill:#a6d71c;fill-opacity:1;fill-rule:nonzero;stroke:none"
         id="path4353"
         inkscape:connector-curvature="0" /><path
         d="m 1707.83,476.188 -54.56,0 -27.27,47.242 27.27,47.258 54.56,0 27.29,-47.258 -27.29,-47.242 0,0"
         style="fill:#a6d71c;fill-opacity:1;fill-rule:nonzero;stroke:none"
         id="path4355"
         inkscape:connector-curvature="0" /><path
         d="m 1571.41,334.375 -27.29,47.266 27.29,47.285 54.59,0 27.27,-47.285 -27.29,-47.266 -54.57,0"
         style="fill:#a6d71c;fill-opacity:1;fill-rule:nonzero;stroke:none"
         id="path4357"
         inkscape:connector-curvature="0" /><path
         d="m 1544.12,570.688 -54.56,0 -27.27,47.257 27.27,47.258 54.56,0 27.29,-47.258 -27.29,-47.257 0,0"
         style="fill:#e5ea08;fill-opacity:1;fill-rule:nonzero;stroke:none"
         id="path4359"
         inkscape:connector-curvature="0" /><path
         d="m 1407.7,428.926 -27.29,47.242 27.29,47.262 54.59,0 27.25,-47.262 -27.28,-47.242 -54.56,0"
         style="fill:#e5ea08;fill-opacity:1;fill-rule:nonzero;stroke:none"
         id="path4361"
         inkscape:connector-curvature="0" /><path
         d="m 1707.83,570.688 -54.56,0 -27.27,47.257 17.28,29.969 9.99,17.289 -0.01,0.012 0.01,0.015 54.56,0 27.29,-47.285 -27.29,-47.257 0,0"
         style="fill:#e5ea08;fill-opacity:1;fill-rule:nonzero;stroke:none"
         id="path4363"
         inkscape:connector-curvature="0" /><path
         d="m 1544.12,287.129 -54.56,0 -27.27,47.246 27.27,47.266 54.56,0 27.29,-47.266 -27.29,-47.246 0,0"
         style="fill:#e5ea08;fill-opacity:1;fill-rule:nonzero;stroke:none"
         id="path4365"
         inkscape:connector-curvature="0" /><path
         d="m 1735.12,428.926 -27.29,47.262 27.29,47.242 54.59,0 27.25,-47.242 -27.27,-47.262 -54.57,0"
         style="fill:#e5ea08;fill-opacity:1;fill-rule:nonzero;stroke:none"
         id="path4367"
         inkscape:connector-curvature="0" /><path
         d="m 1707.83,287.129 -54.56,0 -27.27,47.246 27.27,47.266 54.56,0 27.29,-47.266 -27.29,-47.246 0,0"
         style="fill:#e5ea08;fill-opacity:1;fill-rule:nonzero;stroke:none"
         id="path4369"
         inkscape:connector-curvature="0" /><path
         d="m 231.703,543.73 0,104.184 -98.867,0 0,-104.184 -22.195,0 0,211.934 22.195,0 0,-88.219 98.867,0 0,88.219 22.192,0 0,-211.934 -22.192,0"
         style="fill:#a7a5a6;fill-opacity:1;fill-rule:nonzero;stroke:none"
         id="path4371"
         inkscape:connector-curvature="0" /><path
         d="m 449.836,543.73 0,179.36 -54.762,-118.098 c -2.664,-5.617 -5.031,-13.621 -5.031,-22.496 l 0,-19.234 -22.199,0 0,19.234 c 0,9.477 -2.664,17.176 -5.031,22.496 l -55.352,118.098 0,-179.36 -21.016,0 0,211.934 26.938,0 66.297,-138.23 65.125,138.23 26.933,0 0,-211.934 -21.902,0"
         style="fill:#a7a5a6;fill-opacity:1;fill-rule:nonzero;stroke:none"
         id="path4373"
         inkscape:connector-curvature="0" /><path
         d="m 553.746,543.73 0,211.934 22.195,0 0,-192.402 83.477,0 0,-19.532 -105.672,0"
         style="fill:#a7a5a6;fill-opacity:1;fill-rule:nonzero;stroke:none"
         id="path4375"
         inkscape:connector-curvature="0" /><path
         d="m 768.328,617.434 -49.719,0 c -6.812,0 -10.953,-0.895 -14.8,-4.153 l -5.625,-4.726 c -3.258,-2.965 -5.625,-5.934 -5.625,-10.653 l 0,-16.582 c 0,-4.441 2.07,-7.707 5.332,-10.351 l 6.8,-5.637 c 2.965,-2.367 7.106,-3.547 13.918,-3.547 l 49.719,0 0,55.649 z m 10.66,-73.704 -66.593,0 c -9.774,0 -17.766,3.258 -23.387,8.282 l -7.992,7.406 c -7.11,6.512 -9.766,12.422 -9.766,21.602 l 0,17.175 c 0,9.164 2.656,15.086 9.766,21.61 l 8.879,7.984 c 5.918,5.336 13.914,7.695 23.679,7.695 l 54.754,0 0,14.797 c 0,6.211 -3.543,10.367 -7.691,13.918 l -5.032,4.446 c -6.804,5.91 -10.062,7.101 -18.949,7.101 l -50.015,0 0,18.043 58.308,0 c 10.656,0 16.867,-3.246 22.203,-7.684 l 12.125,-10.656 c 9.18,-8.004 10.961,-13.027 10.961,-23.691 l 0,-95.903 -11.25,-12.125"
         style="fill:#a7a5a6;fill-opacity:1;fill-rule:nonzero;stroke:none"
         id="path4377"
         inkscape:connector-curvature="0" /><path
         d="m 916.609,543.73 0,95.606 c 0,10.055 -3.543,15.391 -10.648,21.898 l -6.219,5.625 c -4.742,4.442 -10.656,8.293 -21.613,8.293 l -37.891,0 0,-131.422 -21.898,0 0,137.93 11.25,12.129 59.199,0 c 10.359,0 16.57,-2.363 22.496,-7.684 L 930.23,668.93 c 5.614,-5.325 8.282,-9.465 8.282,-18.348 l 0,-106.852 -21.903,0"
         style="fill:#a7a5a6;fill-opacity:1;fill-rule:nonzero;stroke:none"
         id="path4379"
         inkscape:connector-curvature="0" /><path
         d="m 1064.89,675.152 -40.85,0 c -10.36,0 -15.97,-2.668 -21.31,-6.812 l -7.984,-5.918 c -3.555,-2.672 -9.18,-8.883 -9.18,-21.016 l 0,-45.293 c 0,-12.129 5.625,-18.34 9.18,-21.004 l 7.984,-5.933 c 5.34,-4.141 10.95,-6.801 21.31,-6.801 l 40.85,0 0,112.777 z m 10.66,-131.422 -61.27,0 c -8.88,0 -16.878,2.368 -26.643,10.352 l -14.801,12.145 c -5.91,5.027 -9.18,11.836 -9.18,25.746 l 0,53.574 c 0,13.918 3.27,20.723 9.18,25.754 l 14.801,12.133 c 9.765,7.992 17.463,10.355 26.343,10.355 l 50.91,0 0,61.875 21.91,0 0,-199.809 -11.25,-12.125"
         style="fill:#a7a5a6;fill-opacity:1;fill-rule:nonzero;stroke:none"
         id="path4381"
         inkscape:connector-curvature="0" /><path
         d="m 218.379,412.98 c 0,7.997 -2.66,13.622 -7.695,17.762 l -7.696,6.809 c -5.027,4.14 -9.175,5.625 -21.308,5.625 l -49.434,0 0,-86.731 49.434,0 c 12.133,0 16.281,1.485 21.308,5.625 l 7.696,6.516 c 5.035,4.141 7.695,10.059 7.695,18.055 l 0,26.339 z m 2.961,-163.097 0,20.722 c 0,5.918 -0.887,12.137 -4.735,18.946 l -25.75,48.254 -58.609,0 0,-87.922 -21.605,0 0,199.801 11.839,12.132 65.114,0 c 21.609,0 25.758,-6.507 41.144,-19.828 9.77,-8.289 12.434,-15.093 12.434,-24.871 l 0,-35.515 c 0,-10.059 -2.664,-16.875 -12.731,-24.864 l -15.687,-12.722 26.937,-49.133 c 4.141,-7.695 5.036,-15.692 5.036,-23.098 l 0,-21.902 -23.387,0"
         style="fill:#a7a5a6;fill-opacity:1;fill-rule:nonzero;stroke:none"
         id="path4383"
         inkscape:connector-curvature="0" /><path
         d="m 371.781,351.711 c 0,12.137 -5.027,18.348 -8.578,21.016 l -7.402,5.918 c -5.031,4.148 -10.063,7.097 -20.121,7.097 l -6.813,0 c -10.062,0 -15.097,-2.949 -20.129,-7.097 l -7.398,-5.918 c -3.547,-2.668 -8.289,-8.879 -8.289,-21.016 l 0,-15.676 78.73,0 0,15.676 z m 10.067,-33.438 -88.797,0 0,-16.289 c 0,-12.14 4.742,-18.351 8.289,-21.015 l 7.398,-5.617 c 5.325,-3.86 10.067,-6.817 20.129,-6.817 l 55.942,0 0,-18.652 -66.004,0 c -8.293,0 -15.391,2.375 -24.864,10.371 l -14.214,12.129 c -5.622,5.039 -8.286,11.847 -8.286,25.762 l 0,55.636 c 0,13.914 2.664,20.711 8.286,25.75 l 14.214,12.149 c 9.473,7.976 16.571,10.351 24.864,10.351 l 26.633,0 c 8.292,0 15.402,-2.375 24.871,-10.351 l 14.203,-12.149 c 5.625,-5.039 8.586,-11.836 8.586,-25.75 l 0,-23.672 -11.25,-11.836"
         style="fill:#a7a5a6;fill-opacity:1;fill-rule:nonzero;stroke:none"
         id="path4385"
         inkscape:connector-curvature="0" /><path
         d="m 521.051,381.309 -40.852,0 c -10.359,0 -15.98,-2.664 -21.308,-6.817 l -7.993,-5.906 c -3.55,-2.668 -9.179,-8.879 -9.179,-21.027 l 0,-45.274 c 0,-12.148 5.629,-18.359 9.179,-21.023 l 7.993,-5.91 c 5.328,-4.141 10.949,-6.817 21.308,-6.817 l 40.852,0 0,112.774 z m 10.945,-174.922 -12.43,-10.957 c -5.332,-4.434 -11.543,-7.703 -22.199,-7.703 l -64.226,0 0,18.66 55.644,0 c 8.875,0 11.836,1.465 18.942,7.101 l 5.628,4.434 c 4.141,3.25 7.696,7.695 7.696,13.902 l 0,18.059 -50.617,0 c -8.879,0 -16.875,2.375 -26.645,10.371 l -14.797,12.129 c -5.918,5.039 -9.179,11.847 -9.179,25.762 l 0,53.566 c 0,13.906 3.261,20.711 9.179,25.75 l 14.797,12.141 c 9.77,7.988 17.465,10.359 26.352,10.359 l 72.812,0 0,-169.902 c 0,-10.653 -1.781,-15.391 -10.957,-23.672"
         style="fill:#a7a5a6;fill-opacity:1;fill-rule:nonzero;stroke:none"
         id="path4387"
         inkscape:connector-curvature="0" /><path
         d="m 570.266,249.883 0,150.078 21.898,0 0,-150.078 -21.898,0 z m -0.594,173.762 0,28.109 23.082,0 0,-28.109 -23.082,0"
         style="fill:#a7a5a6;fill-opacity:1;fill-rule:nonzero;stroke:none"
         id="path4389"
         inkscape:connector-curvature="0" /><path
         d="m 734.324,264.688 -11.84,-9.168 c -4.449,-3.262 -11.543,-5.637 -19.535,-5.637 l -80.511,0 0,18.652 75.476,0 c 6.512,0 10.066,1.184 13.32,3.543 l 5.036,3.86 c 2.66,2.07 5.324,6.218 5.324,10.656 l 0,11.551 c 0,9.757 -4.739,14.199 -17.766,15.39 l -53.269,5.313 c -22.801,2.375 -31.086,15.105 -31.086,30.5 l 0,15.984 c 0,10.949 3.261,16.27 8,19.824 l 11.836,9.18 c 4.441,3.254 11.543,5.625 19.531,5.625 l 74.301,0 0,-18.652 -69.262,0 c -6.516,0 -10.066,-1.18 -13.32,-3.543 l -5.036,-3.848 c -2.668,-2.07 -5.324,-6.223 -5.324,-10.656 l 0,-9.18 c 0,-9.18 4.735,-13.621 17.164,-14.805 l 50.325,-5.031 c 25.453,-2.664 34.625,-13.621 34.625,-30.191 l 0,-19.532 c 0,-10.957 -3.254,-16.281 -7.989,-19.835"
         style="fill:#a7a5a6;fill-opacity:1;fill-rule:nonzero;stroke:none"
         id="path4391"
         inkscape:connector-curvature="0" /><path
         d="m 814.32,249.883 c -10.652,0 -17.461,2.375 -22.789,6.808 l -12.14,10.664 c -8.879,7.997 -10.352,13.321 -10.352,24.266 l 0,140.891 21.899,0 0,-32.551 46.468,0 0,-18.652 -46.468,0 0,-87.618 c 0,-5.019 1.781,-10.058 8.578,-15.976 l 3.554,-2.969 c 6.817,-5.613 10.66,-6.211 19.543,-6.211 l 14.793,0 0,-18.652 -23.086,0"
         style="fill:#a7a5a6;fill-opacity:1;fill-rule:nonzero;stroke:none"
         id="path4393"
         inkscape:connector-curvature="0" /><path
         d="m 886.035,381.309 0,-131.426 -21.898,0 0,137.941 11.238,12.137 64.527,0 0,-18.652 -53.867,0"
         style="fill:#a7a5a6;fill-opacity:1;fill-rule:nonzero;stroke:none"
         id="path4395"
         inkscape:connector-curvature="0" /><path
         d="m 1075.84,206.387 -12.43,-10.957 c -5.32,-4.434 -11.54,-7.703 -22.19,-7.703 l -65.716,0 0,18.66 57.126,0 c 8.88,0 11.84,1.465 18.94,7.101 l 5.63,4.434 c 4.14,3.25 7.69,7.695 7.69,13.902 l 0,18.059 -48.54,0 c -10.35,0 -16.565,2.375 -22.498,7.707 l -18.946,17.156 c -5.613,5.344 -8.281,9.484 -8.281,18.359 l 0,106.856 21.898,0 0,-95.606 c 0,-10.078 3.555,-15.39 10.653,-21.906 l 6.224,-5.625 c 4.74,-4.441 10.65,-8.289 21.6,-8.289 l 37.89,0 0,131.426 21.91,0 0,-169.902 c 0,-10.653 -1.79,-15.391 -10.96,-23.672"
         style="fill:#a7a5a6;fill-opacity:1;fill-rule:nonzero;stroke:none"
         id="path4397"
         inkscape:connector-curvature="0" /></g></g></svg>