<?xml version="1.0" standalone="no"?>
<!DOCTYPE svg PUBLIC "-//W3C//DTD SVG 20010904//EN"
 "http://www.w3.org/TR/2001/REC-SVG-20010904/DTD/svg10.dtd">
<svg version="1.0" xmlns="http://www.w3.org/2000/svg"
 width="600.000000pt" height="600.000000pt" viewBox="0 0 600.000000 600.000000"
 preserveAspectRatio="xMidYMid meet">
<metadata>
Created by potrace 1.11, written by Peter Selinger 2001-2013
</metadata>
<g transform="translate(0.000000,600.000000) scale(0.100000,-0.100000)"
fill="#000000" stroke="none">
<path d="M1913 5818 c-5 -7 -67 -113 -137 -235 -115 -200 -126 -224 -115 -245
l11 -23 -21 23 c-22 22 -25 22 -285 22 -238 0 -264 -2 -278 -17 -21 -26 -261
-446 -261 -458 0 -6 59 -112 131 -237 73 -126 132 -231 132 -235 0 -5 -60
-111 -133 -238 l-133 -230 -275 -3 -274 -2 -105 -182 c-58 -100 -119 -207
-136 -238 l-31 -55 136 -235 137 -235 269 -2 270 -3 136 238 136 237 278 5
278 5 101 175 c56 96 116 200 134 231 l31 55 -134 235 c-74 128 -135 238 -135
243 0 5 61 114 135 242 l136 234 -27 45 c-14 25 -24 45 -21 45 3 0 16 -18 28
-40 l23 -40 267 0 267 0 125 218 c69 119 129 224 132 234 4 10 -40 97 -127
247 l-133 231 -261 0 c-198 0 -264 -3 -271 -12z m-218 -538 c9 -16 13 -30 11
-30 -3 0 -12 14 -21 30 -9 17 -13 30 -11 30 3 0 12 -13 21 -30z m70 -122 c26
-46 50 -86 52 -90 2 -5 2 -8 -1 -8 -3 0 -37 57 -103 173 -2 4 -2 7 1 7 2 0 25
-37 51 -82z m80 -138 c9 -16 13 -30 11 -30 -3 0 -12 14 -21 30 -9 17 -13 30
-11 30 3 0 12 -13 21 -30z"/>
<path d="M3418 5593 c-75 -131 -133 -240 -129 -243 4 -3 65 -105 135 -227
l128 -223 267 0 267 0 23 40 c12 22 25 40 28 40 3 0 -7 -20 -21 -45 l-26 -44
135 -234 c74 -129 135 -238 135 -244 0 -5 -61 -115 -135 -243 l-135 -233 32
-56 c18 -31 78 -135 133 -231 l101 -175 278 -5 279 -5 136 -237 136 -238 270
3 269 2 137 235 136 235 -31 55 c-17 31 -78 138 -136 238 l-105 182 -274 2
-275 3 -133 230 c-73 127 -133 233 -133 238 0 4 59 109 132 235 72 125 131
232 131 237 0 13 -240 433 -261 458 -14 15 -40 17 -276 17 -144 0 -266 -4
-272 -8 -6 -4 -23 -28 -38 -54 -15 -27 -30 -48 -33 -48 -2 0 10 25 27 55 l32
56 -88 152 c-48 84 -108 188 -134 232 l-46 80 -265 3 -264 2 -137 -237z m857
-383 c-9 -16 -18 -30 -21 -30 -2 0 2 14 11 30 9 17 18 30 21 30 2 0 -2 -13
-11 -30z m-50 -87 c-15 -27 -32 -52 -38 -58 -6 -5 2 13 18 40 15 28 30 53 32
58 2 4 7 7 10 7 2 0 -7 -21 -22 -47z m-60 -103 c-9 -16 -18 -30 -21 -30 -2 0
2 14 11 30 9 17 18 30 21 30 2 0 -2 -13 -11 -30z"/>
<path d="M2718 5343 c-22 -27 -258 -440 -258 -453 0 -9 170 -311 251 -446 l18
-30 -134 -234 c-74 -128 -135 -237 -135 -242 0 -5 7 -22 15 -38 9 -17 13 -30
11 -30 -3 0 -12 14 -21 30 l-16 30 -267 0 -267 -1 -133 -231 -132 -232 129
-226 130 -225 273 -2 273 -3 130 228 131 228 -19 32 c-10 18 -16 32 -13 32 3
0 12 -13 21 -30 l16 -30 279 0 279 0 36 65 c20 36 39 65 42 65 5 0 -54 -109
-67 -123 -4 -5 52 -111 124 -237 l131 -229 271 -1 272 0 120 208 c66 114 124
217 130 228 10 19 -6 52 -121 252 l-132 231 -267 1 -267 0 -16 -30 c-9 -16
-18 -30 -21 -30 -2 0 2 13 11 30 8 16 15 33 15 38 0 6 -61 115 -135 243 l-134
233 18 30 c77 127 251 437 251 446 0 13 -236 426 -258 453 -14 15 -40 17 -282
17 -242 0 -268 -2 -282 -17z m-203 -1513 c9 -16 13 -30 11 -30 -3 0 -12 14
-21 30 -9 17 -13 30 -11 30 3 0 12 -13 21 -30z m965 -27 c-18 -32 -37 -62 -43
-68 -6 -5 1 10 15 35 14 25 31 55 37 68 6 12 14 22 17 22 3 0 -9 -26 -26 -57z
m-925 -43 c9 -16 13 -30 11 -30 -3 0 -12 14 -21 30 -9 17 -13 30 -11 30 3 0
12 -13 21 -30z m40 -70 c9 -16 13 -30 11 -30 -3 0 -12 14 -21 30 -9 17 -13 30
-11 30 3 0 12 -13 21 -30z m810 -17 c-15 -27 -32 -52 -38 -58 -6 -5 2 13 18
40 15 28 30 53 32 58 2 4 7 7 10 7 2 0 -7 -21 -22 -47z m-775 -43 c6 -11 8
-20 6 -20 -3 0 -10 9 -16 20 -6 11 -8 20 -6 20 3 0 10 -9 16 -20z m35 -60 c9
-16 13 -30 11 -30 -3 0 -12 14 -21 30 -9 17 -13 30 -11 30 3 0 12 -13 21 -30z"/>
<path d="M1775 2760 l-138 -240 -276 0 -276 0 -133 -231 -134 -232 24 -42 c12
-22 75 -132 138 -243 l115 -202 269 3 269 2 136 237 136 237 277 1 276 0 107
185 c59 102 109 185 111 185 3 0 3 -3 1 -7 -2 -5 -51 -88 -107 -187 -81 -139
-101 -182 -93 -195 5 -9 65 -112 132 -229 94 -164 121 -218 115 -232 -5 -10
-67 -120 -139 -244 l-130 -225 -277 -1 -277 0 -16 -30 c-9 -16 -18 -30 -21
-30 -3 0 3 15 14 33 l19 33 -131 227 -131 227 -273 -2 -274 -3 -129 -224 c-72
-123 -128 -227 -127 -231 2 -4 62 -109 133 -233 l130 -227 267 0 266 0 37 65
c20 36 38 65 41 65 2 0 -12 -30 -32 -67 l-37 -68 138 -237 137 -238 274 0
c151 0 274 3 274 8 0 4 60 111 133 237 l133 230 274 0 274 0 133 -230 c73
-126 133 -233 133 -237 0 -5 123 -8 274 -8 l274 0 137 238 138 237 -37 68
c-20 37 -34 67 -32 67 3 0 21 -29 41 -65 l37 -65 266 0 267 0 130 227 c72 124
131 229 133 233 1 4 -55 108 -127 231 l-129 224 -274 3 -275 2 -11 -22 c-6
-13 -65 -115 -130 -228 l-119 -204 20 -33 c10 -18 16 -33 13 -33 -3 0 -12 14
-21 30 l-16 30 -277 0 -277 1 -130 226 c-71 124 -134 234 -139 243 -6 14 21
69 115 232 67 117 127 220 132 229 8 13 -18 66 -123 248 l-134 231 -266 0
-266 0 -23 -40 c-12 -22 -25 -40 -28 -40 -3 0 6 19 20 43 l26 43 -139 240
-139 239 -269 3 -269 2 -138 -240z m74 -1752 c-25 -49 -92 -158 -96 -158 -2 0
-2 3 0 8 65 114 100 172 103 172 3 0 -1 -10 -7 -22z m2346 -60 c26 -46 50 -86
52 -90 2 -5 2 -8 -1 -8 -3 0 -37 57 -103 173 -2 4 -2 7 1 7 2 0 25 -37 51 -82z
m-2460 -138 c-9 -16 -18 -30 -21 -30 -2 0 2 14 11 30 9 17 18 30 21 30 2 0 -2
-13 -11 -30z m2540 0 c9 -16 13 -30 11 -30 -3 0 -12 14 -21 30 -9 17 -13 30
-11 30 3 0 12 -13 21 -30z"/>
<path d="M3469 2858 c-45 -79 -108 -188 -140 -243 -52 -89 -57 -102 -45 -120
7 -11 68 -116 135 -232 l123 -213 276 0 277 -1 136 -237 136 -237 269 -2 269
-3 115 202 c63 111 125 220 138 243 l24 42 -133 231 -134 232 -275 0 -276 0
-139 240 -138 240 -268 0 -267 0 -83 -142z"/>
<path d="M146 2758 c-71 -123 -129 -228 -129 -234 0 -6 58 -113 129 -237 l129
-226 269 2 268 2 133 230 c116 201 131 233 121 251 -6 11 -65 114 -131 227
l-119 207 -271 0 -270 0 -129 -222z"/>
<path d="M5053 2753 l-132 -228 18 -30 c10 -16 71 -121 136 -232 l117 -203
266 0 267 1 129 226 c71 124 129 231 129 237 0 6 -58 111 -128 234 l-129 222
-271 0 -270 0 -132 -227z"/>
</g>
</svg>
